<svg version="1.2" xmlns="http://www.w3.org/2000/svg" viewBox="0 0 684 183" width="684" height="183">
	<title>LOGO_NEXTLANE-CONSENT-CENTER-WHITE-svg</title>
	<defs>
		<clipPath clipPathUnits="userSpaceOnUse" id="cp1">
			<path d="m154.3 175.1h-132c-7.7 0-14-6.3-14-14v-132c0-7.7 6.3-14 14-14h132c7.7 0 14 6.3 14 14v132c0 7.7-6.2 14-14 14z"/>
		</clipPath>
		<linearGradient id="g1" x2="1" gradientUnits="userSpaceOnUse" gradientTransform="matrix(122.561,0,0,24.792,28.017,67.773)">
			<stop offset=".2" stop-color="#ffc469" stop-opacity="0"/>
			<stop offset=".9" stop-color="#ffc469" stop-opacity="1"/>
		</linearGradient>
		<clipPath clipPathUnits="userSpaceOnUse" id="cp2">
			<path d="m154.3 175.1h-132c-7.7 0-14-6.3-14-14v-132c0-7.7 6.3-14 14-14h132c7.7 0 14 6.3 14 14v132c0 7.7-6.2 14-14 14z"/>
		</clipPath>
		<linearGradient id="g2" x2="1" gradientUnits="userSpaceOnUse" gradientTransform="matrix(148.299,0,0,24.8,2.28,95.356)">
			<stop offset=".2" stop-color="#ffc469" stop-opacity="0"/>
			<stop offset=".9" stop-color="#ffc469" stop-opacity="1"/>
		</linearGradient>
		<clipPath clipPathUnits="userSpaceOnUse" id="cp3">
			<path d="m154.3 175.1h-132c-7.7 0-14-6.3-14-14v-132c0-7.7 6.3-14 14-14h132c7.7 0 14 6.3 14 14v132c0 7.7-6.2 14-14 14z"/>
		</clipPath>
		<linearGradient id="g3" x2="1" gradientUnits="userSpaceOnUse" gradientTransform="matrix(174.036,0,0,24.791,-23.457,122.94)">
			<stop offset=".2" stop-color="#ffc469" stop-opacity="0"/>
			<stop offset=".9" stop-color="#ffc469" stop-opacity="1"/>
		</linearGradient>
	</defs>
	<style>
		.s0 { fill: #ffffff } 
		.s1 { fill: #ffc469 } 
		.s2 { fill: url(#g1) } 
		.s3 { fill: url(#g2) } 
		.s4 { fill: url(#g3) } 
	</style>
	<g id="REPÈRES">
		<g id="Layer">
		</g>
	</g>
	<g id="CONSENT_CENTER">
		<g id="Layer">
			<path id="Layer" class="s0" d="m154.3 175.1h-132c-7.7 0-14-6.3-14-14v-132c0-7.7 6.3-14 14-14h132c7.7 0 14 6.3 14 14v132c0 7.7-6.2 14-14 14z"/>
			<path id="Layer" fill-rule="evenodd" class="s1" d="m154.3 176.6h-132c-8.5 0-15.5-7-15.5-15.5v-132c0-8.5 7-15.5 15.5-15.5h132c8.5 0 15.5 7 15.5 15.5v132c0 8.5-6.9 15.5-15.5 15.5zm-132-160c-6.9 0-12.5 5.6-12.5 12.5v132c0 6.9 5.6 12.5 12.5 12.5h132c6.9 0 12.5-5.6 12.5-12.5v-132c0-6.9-5.6-12.5-12.5-12.5z"/>
		</g>
		<g id="Layer">
			<path id="Layer" class="s0" d="m238.6 130.6c-1.6 0.7-3.6 1-5.7 1q-2.8 0-5.1-0.9c-1.5-0.6-2.9-1.5-4-2.7-1.1-1.2-2-2.6-2.6-4.3-0.6-1.6-0.9-3.5-0.9-5.5 0-2 0.3-3.9 0.9-5.5 0.6-1.6 1.5-3.1 2.6-4.3 1.1-1.2 2.5-2.1 4-2.7q2.3-0.9 5.1-0.9c2.2 0 4.1 0.3 5.7 1 1.6 0.7 2.9 1.6 4 2.9l7.8-7.8c-2.2-2-4.8-3.6-7.7-4.8-2.9-1.1-6.2-1.7-9.8-1.7-3.5 0-6.7 0.6-9.7 1.8-3 1.2-5.6 2.9-7.8 5-2.2 2.1-4 4.6-5.2 7.5-1.2 2.9-1.9 6-1.9 9.5 0 3.4 0.6 6.5 1.9 9.4 1.2 2.9 3 5.4 5.2 7.6 2.2 2.1 4.8 3.8 7.8 5 3 1.2 6.2 1.8 9.8 1.8 3.8 0 7.1-0.6 10-1.7 2.8-1.1 5.4-2.7 7.6-4.7l-7.8-7.8c-1.2 1.1-2.6 2.1-4.2 2.8z"/>
			<path id="Layer" fill-rule="evenodd" class="s0" d="m285.2 116.7c1.5 2.5 2.3 5.3 2.3 8.5 0 3.1-0.8 6-2.3 8.5-1.5 2.6-3.6 4.5-6.3 6-2.7 1.5-5.7 2.2-9.1 2.2-3.4 0-6.4-0.7-9.1-2.2-2.6-1.5-4.8-3.5-6.3-6-1.5-2.5-2.3-5.3-2.3-8.5 0-3.2 0.8-6 2.3-8.5 1.5-2.5 3.6-4.4 6.3-5.9 2.7-1.5 5.7-2.2 9.1-2.2 3.4 0 6.4 0.7 9.1 2.2 2.7 1.4 4.8 3.4 6.3 5.9zm-9.2 8.6c0-1.3-0.3-2.4-0.8-3.4-0.6-1-1.3-1.8-2.2-2.3-0.9-0.5-1.9-0.8-3.2-0.8-1.2 0-2.2 0.2-3.2 0.8-0.9 0.6-1.7 1.3-2.2 2.3-0.5 1-0.8 2.1-0.8 3.4 0 1.3 0.3 2.4 0.8 3.4 0.5 1 1.2 1.8 2.2 2.3 0.9 0.5 2 0.8 3.2 0.8 1.3 0 2.4-0.3 3.3-0.8 1-0.5 1.7-1.3 2.2-2.3 0.5-1 0.7-2.1 0.7-3.4z"/>
			<path id="Layer" class="s0" d="m318.2 110.3c-1.8-1.1-3.8-1.6-6.1-1.6-2.5 0-4.8 0.5-6.7 1.5-0.7 0.4-1.3 0.8-1.9 1.3v-2.1h-11.3v31.8h11.3v-17.9c0-1 0.2-1.8 0.6-2.5 0.4-0.7 0.9-1.2 1.7-1.6q1.1-0.6 2.4-0.6c1.3 0 2.4 0.4 3.3 1.3 0.9 0.8 1.3 2 1.3 3.5v17.9h11.2v-20.5c0-2.3-0.5-4.3-1.6-6-1-2-2.4-3.4-4.2-4.5z"/>
			<path id="Layer" class="s0" d="m341.2 117.6c0.4-0.3 1.1-0.4 2.1-0.4 1 0 2.2 0.2 3.4 0.7 1.2 0.5 2.4 1.3 3.4 2.4l6.2-6.3q-2.3-2.9-6-4.2c-2.5-0.9-5.1-1.4-7.8-1.4-2.7 0-5 0.4-7 1.3-2 0.9-3.5 2.1-4.6 3.6-1.1 1.5-1.7 3.3-1.7 5.4 0 2 0.4 3.6 1.1 4.8 0.7 1.3 1.7 2.2 2.8 2.9 1.2 0.7 2.4 1.2 3.6 1.7 1.3 0.4 2.5 0.8 3.6 1 1.1 0.3 2.1 0.6 2.8 1 0.7 0.4 1.1 0.9 1.1 1.6 0 0.5-0.2 0.8-0.7 1.1-0.5 0.3-1.2 0.4-2.2 0.4-1.6 0-3.2-0.3-4.6-0.9-1.5-0.6-2.7-1.5-3.7-2.5l-6.2 6.3c1.1 1.2 2.5 2.2 4.1 3.1 1.6 0.9 3.4 1.6 5.3 2.1 1.9 0.5 3.8 0.8 5.8 0.8 4.1 0 7.3-0.9 9.8-2.8q3.6-2.7 3.6-7.5c0-2-0.4-3.6-1.1-4.9-0.7-1.3-1.6-2.3-2.8-3q-1.6-1.2-3.6-1.8c-1.2-0.4-2.4-0.8-3.6-1.1-1.1-0.3-2.1-0.6-2.8-0.9-0.7-0.3-1.1-0.8-1.1-1.4 0.1-0.4 0.4-0.8 0.8-1.1z"/>
			<path id="Layer" fill-rule="evenodd" class="s0" d="m390.1 116.3c1.4 2.4 2.1 5.1 2.1 8.2 0 0.7-0.1 1.3-0.1 2 0 0.7-0.2 1.4-0.4 2.3l-22.3 0.1c0.1 0.4 0.3 0.7 0.4 1 0.6 1.3 1.5 2.2 2.6 2.9 1.2 0.7 2.6 1 4.2 1 1.5 0 2.9-0.3 4.1-0.8 1.2-0.5 2.2-1.3 3.2-2.4l5.9 5.9c-1.6 1.7-3.5 3.1-5.7 4-2.3 0.9-4.8 1.4-7.6 1.4-3.5 0-6.7-0.7-9.4-2.1-2.7-1.4-4.8-3.4-6.4-5.9-1.5-2.5-2.3-5.4-2.3-8.6 0-3.2 0.8-6 2.3-8.5 1.5-2.5 3.6-4.4 6.2-5.9 2.6-1.5 5.6-2.2 8.9-2.2 3.2 0 6 0.6 8.5 2 2.5 1.3 4.5 3.2 5.8 5.6zm-20.4 4.4q-0.2 0.5-0.3 0.9l12.4-0.1c-0.1-0.4-0.2-0.8-0.4-1.2-0.5-1.1-1.2-2-2.1-2.6-0.9-0.6-2-0.9-3.4-0.9-1.4 0-2.7 0.3-3.7 1-1 0.7-1.8 1.7-2.5 2.9z"/>
			<path id="Layer" class="s0" d="m422.7 110.3c-1.8-1.1-3.8-1.6-6.1-1.6-2.5 0-4.8 0.5-6.7 1.5-0.7 0.4-1.3 0.8-1.9 1.3v-2.1h-11.3v31.8h11.3v-17.9c0-1 0.2-1.8 0.6-2.5 0.4-0.7 0.9-1.2 1.7-1.6q1.1-0.6 2.4-0.6c1.3 0 2.4 0.4 3.3 1.3 0.9 0.8 1.3 2 1.3 3.5v17.9h11.3v-20.5c0-2.3-0.5-4.3-1.6-6-1.1-2-2.5-3.4-4.3-4.5z"/>
			<path id="Layer" class="s0" d="m449.7 96.3h-11.3v13.1h-7v9.4h7v22.4h11.3v-22.4h7.1v-9.4h-7.1z"/>
			<path id="Layer" class="s0" d="m501.5 130.6c-1.6 0.7-3.6 1-5.7 1q-2.9 0-5.1-0.9c-1.5-0.6-2.9-1.5-4-2.7-1.1-1.2-2-2.6-2.6-4.3-0.6-1.6-0.9-3.5-0.9-5.5 0-2 0.3-3.9 0.9-5.5 0.6-1.6 1.5-3.1 2.6-4.3 1.1-1.2 2.5-2.1 4-2.7q2.2-0.9 5.1-0.9c2.2 0 4.1 0.3 5.7 1 1.6 0.7 2.9 1.6 4 2.9l7.8-7.8c-2.2-2-4.8-3.6-7.7-4.8-2.9-1.1-6.2-1.7-9.8-1.7-3.5 0-6.7 0.6-9.7 1.8-3 1.2-5.6 2.9-7.8 5-2.2 2.1-4 4.6-5.2 7.5-1.2 2.9-1.9 6-1.9 9.5 0 3.4 0.6 6.5 1.9 9.4 1.2 2.9 3 5.4 5.2 7.6 2.2 2.1 4.8 3.8 7.8 5 3 1.2 6.2 1.8 9.8 1.8 3.8 0 7.1-0.6 10-1.7 2.8-1.1 5.4-2.7 7.6-4.7l-7.8-7.8c-1.2 1.1-2.6 2.1-4.2 2.8z"/>
			<path id="Layer" fill-rule="evenodd" class="s0" d="m546.7 116.3c1.4 2.4 2.1 5.1 2.1 8.2 0 0.7 0 1.3-0.1 2 0 0.7-0.2 1.4-0.4 2.3l-22.3 0.1c0.1 0.4 0.3 0.7 0.4 1 0.6 1.3 1.5 2.2 2.6 2.9 1.2 0.7 2.6 1 4.2 1 1.5 0 2.9-0.3 4.1-0.8 1.2-0.5 2.2-1.3 3.2-2.4l5.9 5.9c-1.6 1.7-3.5 3.1-5.7 4-2.3 0.9-4.8 1.4-7.6 1.4-3.5 0-6.7-0.7-9.4-2.1-2.7-1.4-4.8-3.4-6.4-5.9-1.5-2.5-2.3-5.4-2.3-8.6 0-3.2 0.8-6 2.3-8.5 1.5-2.5 3.6-4.4 6.2-5.9 2.6-1.5 5.6-2.2 8.9-2.2 3.2 0 6 0.6 8.5 2 2.5 1.3 4.5 3.2 5.8 5.6zm-20.4 4.4q-0.1 0.5-0.3 0.9l12.4-0.1c-0.1-0.4-0.2-0.8-0.4-1.2-0.5-1.1-1.2-2-2.1-2.6-0.9-0.6-2-0.9-3.4-0.9-1.4 0-2.7 0.3-3.7 1-1.1 0.7-1.9 1.7-2.5 2.9z"/>
			<path id="Layer" class="s0" d="m579.3 110.3c-1.8-1.1-3.8-1.6-6.1-1.6-2.5 0-4.8 0.5-6.7 1.5-0.7 0.4-1.3 0.8-1.9 1.3v-2.1h-11.3v31.8h11.3v-17.9c0-1 0.2-1.8 0.6-2.5 0.4-0.7 0.9-1.2 1.7-1.6q1.1-0.6 2.4-0.6c1.3 0 2.4 0.4 3.3 1.3 0.9 0.8 1.3 2 1.3 3.5v17.9h11.3v-20.5c0-2.3-0.5-4.3-1.6-6-1.1-2-2.5-3.4-4.3-4.5z"/>
			<path id="Layer" class="s0" d="m606.3 96.3h-11.3v13.1h-7v9.4h7v22.4h11.3v-22.4h7.1v-9.4h-7.1z"/>
			<path id="Layer" fill-rule="evenodd" class="s0" d="m646.4 116.3c1.4 2.4 2.1 5.1 2.1 8.2 0 0.7 0 1.3-0.1 2 0 0.7-0.2 1.4-0.4 2.3l-22.3 0.1c0.1 0.4 0.3 0.7 0.4 1 0.6 1.3 1.5 2.2 2.6 2.9 1.2 0.7 2.6 1 4.2 1 1.5 0 2.9-0.3 4.1-0.8 1.2-0.5 2.2-1.3 3.2-2.4l5.9 5.9c-1.6 1.7-3.5 3.1-5.7 4-2.3 0.9-4.8 1.4-7.6 1.4-3.5 0-6.7-0.7-9.4-2.1-2.7-1.4-4.8-3.4-6.4-5.9-1.5-2.5-2.3-5.4-2.3-8.6 0-3.2 0.8-6 2.3-8.5 1.5-2.5 3.6-4.4 6.2-5.9 2.6-1.5 5.6-2.2 8.9-2.2 3.2 0 6 0.6 8.5 2 2.4 1.3 4.4 3.2 5.8 5.6zm-20.5 4.4q-0.1 0.5-0.3 0.9l12.4-0.1c-0.1-0.4-0.2-0.8-0.4-1.2-0.5-1.1-1.2-2-2.1-2.6-0.9-0.6-2-0.9-3.4-0.9-1.4 0-2.7 0.3-3.7 1-1 0.7-1.8 1.7-2.5 2.9z"/>
			<path id="Layer" class="s0" d="m676.1 109.3q-1.6-0.6-3.9-0.6-5 0-8.1 2.7v-2h-11.3v31.8h11.3v-17.3q0-2.5 1.2-3.9c0.8-0.9 2-1.3 3.4-1.3 0.8 0 1.5 0.1 2.1 0.4 0.6 0.2 1.1 0.6 1.5 0.9l6.6-8.8c-0.7-0.9-1.7-1.5-2.8-1.9z"/>
		</g>
		<g id="Layer">
			<g id="Layer">
				<path id="Layer" class="s0" d="m231.2 53.7q-1.3-2.4-3.6-3.9c-1.5-1-3.3-1.5-5.3-1.5-1.9 0-3.7 0.4-5.3 1.3-1 0.6-1.9 1.3-2.6 2.2v-3h-6v26.4h6v-15.2c0-1.2 0.3-2.2 0.8-3.1q0.7-1.3 2.1-2.1c0.9-0.5 2-0.8 3.1-0.8 1.8 0 3.2 0.6 4.3 1.7 1.1 1.1 1.7 2.6 1.7 4.3v15.2h6v-16.6c0.1-1.6-0.3-3.3-1.2-4.9z"/>
				<path id="Layer" fill-rule="evenodd" class="s0" d="m263.1 61.4c0 0.4 0 0.8-0.1 1.3 0 0.4-0.1 0.9-0.2 1.5h-19.7c0.2 0.7 0.4 1.3 0.7 1.9 0.7 1.3 1.6 2.2 2.8 2.9 1.2 0.7 2.6 1 4.2 1 1.4 0 2.6-0.2 3.8-0.7 1.1-0.5 2.1-1.2 2.9-2.1l3.9 3.9c-1.3 1.5-2.9 2.6-4.7 3.4-1.8 0.8-3.7 1.2-5.8 1.2-2.6 0-5-0.6-7.1-1.8-2.1-1.2-3.8-2.8-5-4.9-1.2-2-1.8-4.4-1.8-7 0-2.6 0.6-4.9 1.8-7 1.2-2 2.8-3.7 4.9-4.9q3.1-1.8 6.9-1.8c2.4 0 4.6 0.6 6.5 1.7 1.9 1.2 3.4 2.7 4.5 4.7 1.1 1.9 1.6 4.2 1.5 6.7zm-19.9-2.1h14c-0.2-0.8-0.4-1.5-0.7-2.1-0.5-1.1-1.3-1.9-2.3-2.5-1-0.6-2.2-0.9-3.7-0.9-1.5 0-2.9 0.3-4 1-1.1 0.7-2 1.6-2.6 2.8-0.3 0.5-0.5 1.1-0.7 1.7z"/>
				<path id="Layer" class="s0" d="m291.3 75.2l-9.6-13.5 9.1-12.9h-7l-5.6 8.4-5.8-8.4h-7.3l9.2 12.9-9.7 13.5h7l6.2-9 6.2 9z"/>
				<path id="Layer" class="s0" d="m310.7 48.8h-6.3v-11h-6.1v11h-6.3v5.5h6.3v20.9h6.1v-20.9h6.3z"/>
				<path id="Layer" class="s0" d="m315.1 75.2v-39.6h6v39.6z"/>
				<path id="Layer" fill-rule="evenodd" class="s0" d="m347 48.7h6v26.4h-6v-2.9c-0.8 0.9-1.6 1.6-2.7 2.2-1.6 0.9-3.4 1.3-5.4 1.3-2.4 0-4.6-0.6-6.5-1.8-2-1.2-3.5-2.8-4.6-4.9-1.1-2.1-1.7-4.4-1.7-7 0-2.6 0.6-4.9 1.7-7 1.2-2 2.7-3.7 4.6-4.9 2-1.2 4.1-1.8 6.5-1.8 2.1 0 3.8 0.4 5.4 1.3 1 0.6 1.9 1.3 2.7 2.2zm0.3 13.4q0-2.4-0.9-4.2c-0.6-1.2-1.5-2.1-2.6-2.8-1.1-0.7-2.4-1-3.9-1-1.5 0-2.8 0.3-3.9 1-1.1 0.6-2 1.6-2.6 2.8-0.7 1.2-1 2.6-1 4.2 0 1.6 0.4 3 1 4.2 0.6 1.2 1.5 2.1 2.6 2.8 1.1 0.7 2.4 1 3.9 1 2.2 0 4-0.8 5.4-2.3 1.4-1.5 2.1-3.4 2-5.7z"/>
				<path id="Layer" class="s0" d="m382.6 53.7q-1.4-2.4-3.6-3.9c-1.5-1-3.3-1.5-5.3-1.5-1.9 0-3.7 0.4-5.3 1.3-1 0.6-1.9 1.3-2.6 2.2v-3h-6v26.4h6v-15.2c0-1.2 0.3-2.2 0.8-3.1q0.7-1.3 2.1-2.1c0.9-0.5 2-0.8 3.1-0.8 1.8 0 3.2 0.6 4.3 1.7 1.1 1.1 1.7 2.6 1.7 4.3v15.2h6v-16.6c0.1-1.6-0.4-3.3-1.2-4.9z"/>
				<path id="Layer" fill-rule="evenodd" class="s0" d="m414.5 61.4c0 0.4 0 0.8-0.1 1.3 0 0.4-0.1 0.9-0.2 1.5h-19.7c0.2 0.7 0.4 1.3 0.7 1.9 0.7 1.3 1.6 2.2 2.8 2.9 1.2 0.7 2.6 1 4.2 1 1.4 0 2.6-0.2 3.8-0.7 1.1-0.5 2.1-1.2 2.9-2.1l3.9 3.9c-1.3 1.5-2.9 2.6-4.7 3.4-1.8 0.8-3.7 1.2-5.8 1.2-2.6 0-5-0.6-7.1-1.8-2.1-1.2-3.8-2.8-5-4.9-1.2-2-1.8-4.4-1.8-7 0-2.6 0.6-4.9 1.8-7 1.2-2 2.8-3.7 4.9-4.9q3.1-1.8 6.9-1.8c2.4 0 4.6 0.6 6.5 1.7 1.9 1.2 3.4 2.7 4.5 4.7 1 1.9 1.6 4.2 1.5 6.7zm-20-2.1h14c-0.2-0.8-0.4-1.5-0.7-2.1-0.5-1.1-1.3-1.9-2.3-2.5-1-0.6-2.2-0.9-3.7-0.9-1.5 0-2.9 0.3-4 1-1.1 0.7-2 1.6-2.6 2.8-0.3 0.5-0.5 1.1-0.7 1.7z"/>
			</g>
		</g>
		<g id="Layer">
			<g id="Clip-Path" clip-path="url(#cp1)">
				<path id="Layer" class="s2" d="m150.6 80.2v-24.8h-99.4l-23.2 24.8z"/>
			</g>
			<g id="Clip-Path" clip-path="url(#cp2)">
				<path id="Layer" class="s3" d="m150.6 83h-125.2l-23.1 24.8h148.3z"/>
			</g>
			<g id="Clip-Path" clip-path="url(#cp3)">
				<path id="Layer" class="s4" d="m-0.3 110.5l-23.2 24.8h174.1v-24.8z"/>
			</g>
		</g>
	</g>
</svg>